<svg version="1.2" xmlns="http://www.w3.org/2000/svg" viewBox="0 0 318 71" width="318" height="71"><defs><clipPath clipPathUnits="userSpaceOnUse" id="cp1"><path d="m3 2h68.31v63.85h-68.31z"/></clipPath><clipPath clipPathUnits="userSpaceOnUse" id="cp2"><path d="m0.1 0.68h58.9v67.32h-58.9z"/></clipPath><clipPath clipPathUnits="userSpaceOnUse" id="cp3"><path d="m1.88 63.59h65.66v6.84h-65.66z"/></clipPath></defs><style>.a{fill:#db3f40}.b{fill:#fefefe}.c{fill:#fff}</style><g clip-path="url(#cp1)"><path fill-rule="evenodd" class="a" d="m55.1 65.7v-0.1c0.2-0.2 1.5-1.4 1.7-1.3 2.8-1.6 8.4-7.6 9.3-10.5 1-3 3.6-4.3 4.8-10.3 0.1-0.3 0.1-0.1 0.1-0.6-0.3-0.4-3.6-0.2-3.9-0.5 0 0-3.1 0-3.6-0.1-0.5-0.1-0.9 0.1-1.7-0.1-0.1 0-1.9 0-2.3-0.1-0.6-0.1-1.4-0.2-1.9-0.2 0.2-0.1 1.4-0.1 1.9-0.2 0.7-0.1 2.9 0 3.5-0.3 0 0 2.4 0 3-0.2 1.7-0.5 4 0.2 4.8-0.8 0.1-0.2 0.3-0.2 0.3-0.6 0-0.3 0-0.7 0.1-1.1 0.1-0.5 0.1-3.8 0.1-4.6 0-0.2-0.8-5-0.8-5.2 0-0.1 0-0.5-0.1-1.1-0.3-1.1-0.6-1.2-0.9-1.3-0.3-0.1-0.3-0.3-1.1-0.2-1.5 0-3.6-0.1-3.9-0.2-0.6-0.2-4.3 0-4.9-0.2-0.1 0-2.4-0.1-2.9-0.1 1.3-0.3 2-0.2 2.4-0.3 0 0 0.9 0 1.8-0.1 0.9-0.1 1.8-0.2 2-0.3 1 0 2.2 0 2.5-0.1 0.4-0.2 3.6 0.2 4 0-0.3-0.9-0.4-0.5-0.6-1.6-0.2-1.2-1.4-2-1.7-3.7-0.1-0.3-0.4-0.6-0.4-0.7-0.7-0.5-0.6-1.5-1.3-2.1-0.9-1-3.1-4.9-4.4-5.3-0.2-0.7-2-1.7-3.5-2.5-0.7-0.4-1-0.8-1.4-1.1-0.3-0.2-1-0.6-1.4-0.9-0.2-0.1-0.5-0.4-1.4-0.4-3.4 0-11.3 0.2-12.5 0.2 1.3-0.2 6.1-0.8 7.7-1 1.4-0.2 3.2-0.4 3.4-0.4 0 0-2.3-1.2-3.4-1.5-0.6-0.2-1.6-0.5-2.5-0.8-1.4-0.4-2.7-0.7-3.5-0.6-0.2 0-1.8-0.3-2.5-0.3-1.6 0.1-3-0.3-4.4-0.3-1.4 0.1-2.6 0.7-4.1 0.8-0.6 0-2.1 0.5-2.7 0.5-1.9 0.8-3.4 0.3-5.6 2.4-0.3 0.2-3.9 1.5-5.5 3-1.1 0.9-3.4 2.2-4.2 3.3-0.6 0.9-2 1.5-3.1 3.2 0 0-0.3 0.3-0.6 0.7-0.5 0.5-0.9 1.2-1.1 1.9 0 0.4-0.2 0.9 1.2 1 0.6 0 1.5 0.2 2.2 0.2 1 0 2.3 0.3 3.4 0.3 1.4 0 3 0.1 4.4 0.1 0.2 0 0.6 0.1 0.8 0.1-0.1 0-0.2 0.1-0.6 0.1-0.7 0.2-3.2 0.4-3.8 0.4-0.4 0-2.6 0-2.9 0.1-0.4 0.2-3.6 0-4.6 0.3-0.2 0-1.3 0.1-1.5 0.1-0.3 0.1-1.5 2.2-1.6 2.8 0 0.3-1 2.4-1.1 3-0.4 0.8-1.5 5.8-1.5 6.6 0 0.3 0 0.3 0.3 0.3 0.5 0 0.7 0.1 1.2 0.1 0 0 0 0 0 0 0.4 0 0.5 0 0.9 0 0.5 0.1 0.8 0.2 1.4 0.2 0.9 0 1.8 0 2.7 0 0.5 0 1.2 0.2 1.6 0.2 1.3-0.1 5-0.3 6.2-0.1 0.8 0.2 5.8 0.7 6.3 0.4-0.8 1-12.6 0.1-13.8 0.7-0.7 0.4-3.7 0.4-4.9 0.6-0.2 0-1.6-0.1-1.8 0.1 0 0.9-0.1 1.8-0.1 2.8 0 0.2 0.2 0.4 0.2 1.1 0 0.7 0.2 1.1 0.2 2 0 0.1 0.1 0.6 0.2 0.7 0.1 0.1 0 0.9 0 1.2 0 0.9 1.1 3.3 1.1 3.5 0.7 0 1.2 0.5 2.2 0.4 0.3 0 1.3 0.2 1.9 0.2 0.8 0 3.8-0.1 4.4 0-0.8 0.7-3.8 0.5-5.2 0.8-0.7 0.2-2.1 0.3-2.8 0.3 1.8 5.7 3.8 5.5 4.9 8 0.4 0.9 3.1 4.5 3.9 5 0.6 0.8 4.5 3.8 5.7 4.3z"/></g><g clip-path="url(#cp2)"><path fill-rule="evenodd" class="b" d="m40.8 9.6q1.7 0.8 3.1 1.8c0.3-0.3 0.7-0.5 1.1-0.4 0.4-0.2 0.8-0.3 1.3-0.1 0.4-0.1 0.7 0 1 0.2q0.4 0.1 0.7 0.3c0.2-0.3 0.4-0.5 0.8-0.6 0.3-0.1 0.6 0 0.9 0.1q0.2 0 0.4 0 0.4 0.1 0.7 0.3c0.3 0.1 0.6 0.2 0.8 0.5q0.3 0.1 0.6 0.4 0.2 0.2 0.4 0.6 0.4 0 0.9 0.1 0.3 0 0.6 0c0.7 0.2 1.3 0.6 1.3 1.4q0 0.1 0 0.2-0.1 0.3-0.1 0.6c-0.1 0.9-0.6 1.3-1.5 1.3q-0.7-0.1-1.4-0.1-0.1 0.2-0.3 0.5c-0.1 0.3 0.1 1.3 0.1 1.6 0.2 1.1 0.2 2.3-0.1 3.4-0.2 0.7-0.7 1.4-1.4 1.8-0.6 0.4-1.2 0.7-1.9 0.9-0.7 0.7-1.6 1-2.5 1.3q-0.5 0.2-1.1 0.2-0.4 0.1-0.7 0.2-0.2 0-0.3 0c-0.3 0.1-0.6 0.4-0.9 0.5q-0.1 0.1-0.2 0.2-0.1 0.5-0.3 0.9c0 0.4-0.1 0.9-0.2 1.4 0.2 0.4 0.4 0.8 0.5 1.3q0.1 0.2 0.1 0.5c0.8-0.1 1.7 0.3 2.2 1q3.6-1.3 7.2-2.6c0.4-0.2 0.9-0.3 1.3-0.2 0.5 0.2 0.7 0.6 0.9 1l0.2 0.5c0.3 1-0.1 1.6-1 2q-3.9 1.4-7.9 2.7c1.2 0.9 2.4 1.8 3.6 2.7 0.3 0.2 0.6 0.5 0.9 0.8q0.6 0.5 1.2 1.1 0.6 0.6 1.2 1.2c0.3 0.3 0.6 0.6 0.9 0.9q0.2 0.3 0.5 0.6c0.1 0.2 0.2 0.4 0.4 0.5 1.4 1 2.3 3.9 2.3 5.5 0 0.1 0.1 0.3 0.1 0.4q0.2 0.4 0.4 0.7c0.2 0.9 0.2 1.7-0.2 2.5-0.1 0.2-0.2 0.3-0.3 0.6-0.2 0.4-0.4 0.7-0.7 1-0.1 0.4-0.2 0.6-0.5 0.8q0 0 0 0 0 0.3-0.1 0.5c-0.1 0.3-0.4 0.7-0.6 1-0.1 0.1-0.2 0.3-0.2 0.5-0.2 0.5-0.3 1.1-0.7 1.5q-0.3 0.3-0.7 0.3c-0.3 0.7-0.6 1.3-0.6 2.2 0 0.2 0 0.4 0.1 0.5 0.3 0.3 0.6 0.4 0.8 0.7 0.3 0.3 1 0.9 1.3 1.1 0.7 0.3 0.9 0.4 1.6 0.6 0.5 0.1 0.9 0.2 1.3 0.5 0.5 0.5 0.5 1.2 0.4 1.9 0.1 0.7-0.3 1-0.9 1.2-0.7 0.3-1.9 0.2-2.7 0.3-0.6 0-1.1 0-1.7-0.1-0.9-0.1-1.6-0.5-2.3-1q0-0.1-0.1-0.2c-0.2 0.3-0.5 0.5-0.9 0.4h-1.6c-1.2-0.1-1.5-1.2-1.3-2.2q0-0.2 0.1-0.4c-0.1-0.8 0.1-1.5 0.4-2.3 0.3-0.7 0.7-1.5 0.8-2.3 0.1-0.5 0.1-1.2 0.1-1.7-0.9 0.2-1.7 0.3-2.6 0.5-0.3 0-0.5 0.1-0.8 0.2-0.7 0.4-1.3 0.5-2.1 0.6-1.2 0.1-3.1 0.3-4-0.7q-0.3-0.5-0.7-1c-0.2-0.3-0.4-0.8-0.6-1.5-0.5 1.5-1.2 3.5-2.6 4.3-1.1 0.6-3-0.1-4.1-0.6-0.9-0.5-2.1-1.1-2.7-1.9q-0.1-0.1-0.1-0.2c-0.5-0.4-1.3-0.7-1.8-0.9-0.8-0.3-1.5-0.7-2.1-1.2l-0.7 0.7c-0.2 0.7-0.9 1.2-1.5 1.6-0.3 0.2-0.5 0.5-0.8 0.7-0.2 0.2-0.4 0.5-0.6 0.7-0.4 0.6-0.6 1.3-1 1.9-0.2 0.4-0.2 0.8-0.3 1.2-0.1 0.4-0.3 0.8-0.5 1.1 0 0.2 0 0.4 0 0.5q0 0.6-0.1 1.1c-0.2 1.5-1.2 2.3-2.7 2.3-1.2 0-2.8-0.8-2.8-2.2 0-1.1 0.8-2.7 1.2-3.8 0.3-0.7 0.7-1.5 1.1-2.2 0.4-0.7 0.7-1.4 1.2-2q0.1-0.3 0.3-0.6c0.1-0.2 0.3-0.7 0.5-1.1q-0.1 0-0.1-0.1c-0.6-1.1 0.6-2.3 1.1-3.1q0.2-0.3 0.3-0.6c-0.6-0.3-1.1-0.6-1.7-0.9-0.5-0.4-1-0.9-0.8-1.6 0.1-0.6 0.6-0.9 1.2-1 0.1-0.1 0.3-0.1 0.4-0.2 0.7-0.2 1.3-0.6 2-0.9 0.4-0.2 0.7-0.5 1.1-0.7 0.5-0.4 1-0.7 1.6-1 0.3-0.2 0.6-0.5 0.8-0.7 0.5-0.5 0.9-1 1.3-1.4 0.7-0.6 1.7-1.1 2.3-1.8q0-0.1 0.1-0.2-2.6 0.6-5.2 1.1-2.5 0.5-5 0.9c-1.3 0.2-2.7 0.3-4.1 0.4-0.4 0-0.8-0.2-1.1-0.4-0.4-0.3-0.7-0.8-0.6-1.3 0-0.8 0.7-1.2 1.4-1.3 6.4-1.1 12.8-2.6 19.1-4.3v-0.1c0.2-0.6 0.2-1.3 0.3-1.9 0-0.7 0-1.5 0.2-2.1q0.2-0.5 0.5-0.8-0.1-0.4-0.2-0.7c-0.5-1.6-0.9-2.9-0.6-4.6-0.3-2 0.1-3.8 1.6-5.2 0.6-0.6 1.4-0.9 2.1-1.3 0.3-0.1 1-0.5 1.4-0.8q-0.1-0.3-0.1-0.6-1.8-0.5-3.5-1.4l-1.1-0.5 0.8-0.8q0.8-0.8 1.6-1.6-6.9-1.3-13.7-2.9-3.6-0.8-7.1-1.9-3.1-0.9-6.2-2c-1.5-0.6-3.1-1.3-4.6-2.1-0.8-0.5-2.1-1.3-2.4-2.3l-0.5-1.7 1.7 0.6c3 1.3 6.2 2.3 9.4 3.3q5.4 1.7 10.9 3c5.2 1.3 10.6 2.4 16 3.3q0.9-0.7 1.9-1.3l0.4-0.3zm3.9 8q-0.1 0.5-0.3 0.9 0.2 0 0.4 0 0.1-0.3 0.1-0.5 0-0.3 0-0.5-0.1 0-0.2 0.1z"/></g><path fill-rule="evenodd" d="m1.5 2.1c10.2 4.2 27 8.3 38.8 10l0.2-1.1 0.7 0.1-0.2 1c1.9 0.2 10 1.4 12.5 1.5 0.4 0.1 1 0.1 1 0.6q0 0.1 0 0.2c0 0.1 0 0.3 0 0.5-0.1 0.4-0.2 0.5-0.7 0.5-3.9-0.2-9.2-1-13.1-1.6l-0.2 1.3-0.7-0.2 0.2-1.2c-6.3-1.1-12.7-2.3-18.9-3.8-9.6-2.3-19-5.6-19.6-7.8z"/><path fill-rule="evenodd" d="m54 30.4l0.2 0.5c0.1 0.5 0 0.7-0.4 0.9-6.8 2.4-13.9 4.7-20.8 6.7-7.7 2.1-15.6 3.8-20.3 3.9-0.5 0.1-1.5-1 0-1.3 12.2-2 28.7-6.6 40.2-11.1 0.5-0.2 0.9-0.2 1.1 0.4z"/><path fill-rule="evenodd" d="m42.5 13.4c2 1.1 1.9 4.6 0.1 6.3 0.3 0 1.8-0.5 2.6-0.4 0 0.5-0.1 1-0.2 1.4 0.4-0.8 0.6-1.8 0.8-2.7 0-0.7-0.1-1.3 0.1-2-0.6-0.2-1.8-0.4-1.9-1.6 0.1 0 0.1-0.5 0.1-0.5 0-0.2 0.1-1.4 0.3-1.9 0.1-0.2 0.5-0.3 0.7-0.1 0.4-0.2 0.6-0.3 1-0.2 0.3 0.2 0.5-0.2 0.8 0.2 0.1 0.2 0.5-0.1 0.9 0.4 0.1 0.1 0.2 0.6 0.2 0.8 0.1 0.1 0.1 0.6 0.1 1.1 0.1-0.6 0.3-1.1 0.4-1.7 0.1-0.4 0.2-0.8 0.5-0.9 0.3-0.1 0.5 0.2 0.5 0.4 0-0.1 0.2-0.3 0.5-0.3 0.2 0.1 0.4 0.3 0.3 0.4 0.2-0.1 0.7 0 0.7 0.3 1.1 0 0.8 1.5 0.7 2.2 0 0.5 0 1.2-0.3 1.7-0.2 0.3-0.1 1.2 0 2.1 0.2 1.3 0.1 2.3-0.1 3q-0.3 1-1 1.4c-0.5 0.3-1.1 0.6-1.7 0.8 0.1-0.8 0-1.4 0-1.4 0 0.6-0.1 1.3-0.4 1.6-0.6 0.5-1.3 0.9-2.1 1.1-1.1 0.3-1.6 0.2-2.2 0.4-0.8 0.3-1.9 1.3-2.5 1.5 0.2 0 0.6-0.1 0.9-0.2-0.1 0.1-0.1 0.6-0.4 0.9 0.1 0.3 0 1.4-0.4 1.6 0.8 0.7 0.8 2.1 1.2 3 0.4-0.7 1.7-0.3 2.1 0.5 0.6 1 0.2 1.5 0.5 3.1 1.3 1.1 2.3 1.9 3.8 3 0.7 0.5 3.6 3.2 4.1 3.8 0.2 0.2 0.9 1.1 1 1.3 1.2 0.7 2.1 3.4 2.1 4.8 0 0.7 1.1 1.8 0.3 3.1-0.4 0.8-0.2 0.8-0.9 1.7-0.1 0.1-0.1 0.4-0.3 0.5-0.5 0.4-1.4 0.5-1.4 0.5 0.5 0 0.7 0 0.8 0 0.2 0 0.3 0.2 0.2 0.4-0.1 0.3-0.4 0.6-0.5 0.7-0.1 0.2-0.3 0.5-0.4 0.9-0.2 0.7-0.2 1.3-1 1.2-0.4 0.9-1 1.7-1 3 0 1.1 0.7 1.2 1.2 1.8 0.3 0.3 1.1 1 1.5 1.2 0.8 0.5 1 0.5 1.8 0.7 0.8 0.2 1.3 0.3 1 1.5 0 0.3 0.2 0.3-0.3 0.5-0.5 0.2-1.8 0.2-2.4 0.2-0.5 0-1.1 0.1-1.6 0-1.6-0.3-2.3-1.6-3.2-1.7 0 0 0 0.4 0 0.7 0 0.1 0 0.2-0.2 0.2h-1.5c-0.7-0.1-0.7-0.8-0.6-1.2 0-0.3 0.1-0.2 0.2-0.2-0.1-0.9-0.1-1.5 0.3-2.4 0.3-0.7 0.7-1.6 0.9-2.4 0-0.5 0.1-1.5 0.1-2.1-0.1-0.6-0.5-0.8-1-0.6-1 0.2-1.6 0.2-2.7 0.4-1.1 0.3-1.1 0.7-2.8 0.9-1.2 0.1-2.7 0.2-3.2-0.4-0.2-0.3-0.4-0.6-0.7-0.9-0.7-1.1-1.7-5.5-1.7-6.4-0.1 0.6 0 2.2 0.3 3.4-0.9 1.7-0.9 2.8-1.8 4.2-0.4 0.7-0.7 1-1.1 1.2-1.1 0.7-4.7-1-5.7-2.3-1-1.2-3-1-4.8-3l-1.3 1.6c-0.1 0.5-0.8 1-1.3 1.4-0.3 0.2-1.6 1.4-1.7 1.5-0.2 0.6-0.5 1.4-0.9 2-0.3 0.5-0.3 0.9-0.4 1.4-0.1 0.2-0.2 0.5-0.5 1-0.3 0.3 0.8 3.3-2 3.3-0.8 0-1.9-0.5-1.9-1.3 0-0.8 0.6-2.2 1.1-3.5 0.4-1 1.6-3.1 2.2-4.1q0.2-0.3 0.3-0.6c0.2-0.3 0.9-1.8 0.7-1.8-0.9-0.3 0.5-2 0.8-2.4 0.3-0.4 0.5-0.8 0.7-1.5-0.8-0.4-1.7-0.8-2.3-1.2-0.5-0.3-0.6-0.5-0.5-0.7 0.1-0.4 0.8-0.4 1.1-0.6 0.7-0.2 1.4-0.6 2.1-0.9 0.8-0.4 1.5-1.2 2.6-1.7 0.8-0.4 1.5-1.4 2.4-2.3 0.7-0.6 1.6-1.1 2.3-1.9 1.3-1.5 3.7-3.8 4.8-5.3 0.5-1.5 0.2-3.2 0.5-4.2 0.1-0.3 0.4-0.5 0.7-0.5-0.3-1.9-1.4-3.5-0.9-5.8-0.4-1.9 0-3.4 1.3-4.6 0.5-0.5 1.2-0.8 1.9-1.1 0.7-0.4 1.7-1 1.9-1.4-0.1-0.3-0.3-1.1-0.3-1.8-0.2-0.4-0.2-1.1 0-1.5 0.1-0.1 0.2-0.2 0.3-0.1 0.2-0.7 0.6-1.3 1.1-1.6q0.7-0.4 1.7-0.4c0-0.9 0.1-1.7 1-1 0.3 0.3 0.9-0.5 1.1 0.3 0 0.3 0 0.6-0.2 0.8zm6.8 2.9c-0.2-0.6-1-0.6-1.1-1.2q-0.1-0.2-0.1-0.5 0 0.4-0.1 0.6c0 0 0 0.4 0 0.9 0.2 0.7 0.4 1.8 0.5 2.7 0.7-0.6 0.8-1.3 0.8-2.5z"/><path fill-rule="evenodd" d="m33.6 15.8c4.7 2.3 9.5 2.3 13.6-0.7-2.3-2.1-4.2-3.5-6.8-4.8-2.3 1.5-4.9 3.5-6.8 5.5z"/><g clip-path="url(#cp3)"><path fill-rule="evenodd" d="m1.9 68.4c3.3-0.8 10.4-3.1 14.2-3.5 1-0.2 3.7-0.5 6.1-0.7 2.7-0.4 5.2-0.5 8-0.5 3.7-0.1 7.9 0.2 11.6 0.3 5.2 0.1 10.8 0.6 15.4 1.2 3.2 0.4 7.4 1.4 10.2 2.3 0 0.1-3.3-0.5-6.4-0.5-1.6-0.1-7.1-0.7-5.9 0.7 0.6 0.8 1.5 1.7 0.1 1.5-4.8-0.5-4.3-1.3-8.1-2.2-2.4-0.6-5.8-1.1-2.9 0.8 1.1 0.8-1.2 2.4-5.1 0.4-1.1-0.6-6.8-2.1-4.8-0.3 0.9 0.8-1.2 2.4-3 0.3-1-1.2-3-1-4.5-1.1-1.2 0-2.3 0.2-3.4 0.4-1.8 0.4-2.7 1.8-4.7 2.4-1.6 0.5-3 0.8-3.6 0.1-0.3-0.4-1.2-1.5 0.6-2.3 1-0.4-0.5-0.5-1-0.5-1.4 0.1-3.4 0.3-5.2 0.5-2.5 0.2-5.1 0.6-7.6 0.7z"/></g><path class="c" d="m98.6 48.5l-9.1-9.7-2.9 2.9v6.8h-6.2v-26.1h6.2v10.4l10.4-10.4h8.9l-12 11.9 13.6 14.2z"/><path fill-rule="evenodd" class="c" d="m122 22.5q5.6 0 9.5 4 3.9 3.9 3.9 9.5 0 5.6-3.9 9.5-3.9 3.9-9.5 3.9-5.6 0-9.5-3.9-4-3.9-4-9.5 0-5.6 4-9.5 3.9-4 9.5-4zm5.5 19q2.3-2.3 2.3-5.5 0-3.3-2.3-5.6-2.3-2.2-5.5-2.2-3.3 0-5.6 2.2-2.2 2.3-2.2 5.6 0 3.2 2.2 5.5 2.4 2.3 5.6 2.3 3.2 0 5.5-2.3z"/><path class="c" d="m147.9 48.6q-2.7 0-4.7-0.8-1.6-0.6-3.3-2.1-1.9-1.8-2.4-4.4-0.2-0.9-0.2-1.7-0.1-0.3 0-0.6v-0.3l5.5 0.1q0 1.5 0.6 2.4 1.2 1.8 4.5 1.8 5.2 0 5.2-2.4 0-2.4-5.4-3-3.1-0.3-5.3-1.3-2-0.8-3.3-2.2-1.8-2-1.8-4.7 0-1.6 0.6-3.1 0.4-1 1.2-1.9 2.8-3.2 8.9-3.2 3.7 0 6.2 1.4 1.9 1.1 3.1 2.9 0.9 1.4 1.3 3.2 0.1 0.6 0.1 1.2 0.1 0.2 0.1 0.4v0.2h-5.5v0.1q0-1.2-0.6-2.1-1.3-1.8-4.7-1.8-2 0-3.4 0.5-1.6 0.7-1.6 1.9 0 2.5 5.3 3.1 6.1 0.6 8.7 3.7 1.8 2.1 1.8 4.7v0.4q0 0.2-0.1 0.5 0 0.6-0.1 1.2-0.4 1.5-1.5 2.8-1.4 1.5-3.6 2.3-2.3 0.8-5.6 0.8z"/><path class="c" d="m167.5 38.3v4.6h11.9v5.6h-18.2v-26.1h18.2v5.6h-11.9v4.6h10.1v5.7z"/><path class="c" d="m198.9 22.4h6.3v26.1l-17.3-12.7v12.7h-6.3v-26.1l17.3 13.3z"/><path fill-rule="evenodd" class="c" d="m227.4 48.5l-1.9-3.6h-9.8l-1.9 3.6h-7.2l14-26.1 14 26.1zm-4.4-8.5l-2.3-4.6-2.5 4.6z"/><path class="c" d="m253.3 22.4h6.3v26.1l-17.3-12.7v12.7h-6.3v-26.1l17.3 13.3z"/><path class="c" d="m261.2 22.4h6.2v26.1h-6.2z"/><path class="c" d="m297 22.4v26.1h-6.2v-14.6l-7.8 4.9-7.5-4.9v14.6h-6.3v-26.1l13.9 9z"/><path class="c" d="m305.7 38.3v4.6h12v5.6h-18.3v-26.1h18.3v5.6h-12v4.6h10.2v5.7z"/></svg>